{"title":"100 Millio Bc - La guerra dei dinosauri (2008).DVDrip.XviD - Ita","uid":12161786,"size":1748217938,"categoryP":"video","categoryS":"movies","magnet":"?xt=urn:btih:c294384ec2dd5c72b0d3ca54abc9341097014bbe&amp;dn=100+Millio+Bc+-+La+guerra+dei+dinosauri+%282008%29.DVDrip.XviD+-+Ita&amp;tr=udp%3A%2F%2Ftracker.openbittorrent.com%3A80&amp;tr=udp%3A%2F%2Fopen.demonii.com%3A1337&amp;tr=udp%3A%2F%2Ftracker.coppersurfer.tk%3A6969&amp;tr=udp%3A%2F%2Fexodus.desync.com%3A6969","seeders":3,"leechers":2,"uploader":"robbyrs4","files":2,"time":1437929798,"description":"100 Millio Bc - La guerra dei dinosauri (2008).DVDrip.XviD - Italian English.Ac3.5.1.MIRCrew\n\n[center]\n\n[color=red][b][img]http://s19.postimg.org/w9ws99nmb/banner_mircrew_original_2.png[/img]\n\n[u]NO FOUND ONLY ORIGINAL RELEASE[/u]\n\n100 Millio Bc - La guerra dei dinosauri (2008)\n\n[img]http://i.imgur.com/WCKHToG.png[/img]\n\n\n[URL=http://www.imdb.com/title/tt1136683/][IMG]http://www.userlogos.org/files/logos/Sucka/imdb_new.png[/IMG][/URL]  \n\n[img]http://s19.postimg.org/vz5tzn42b/1_scheda.png[/img]\n\nTitolo originale \t100 Million BC\nLingua originale \tInglese\nPaese di produzione \tUSA\nAnno \t2008\nDurata \t85 min\nRapporto \t1,78 : 1\nGenere \tazione, fantascienza\nRegia \tGriff Furst\nSceneggiatura \tPaul Bales\nProduttore \tAnthony Fankhauser, David Michael Latt\nProduttore esecutivo \tPaul Bales, David Rimawi\nCasa di produzione \tThe Asylum\nDistribuzione (Italia) \tMinerva Pictures\nFotografia \tAlexander Yellen\nMontaggio \tMark Atkins, Nick Everhart\nMusiche \tRalph Rieckermann\nScenografia \tBrandon Kihl\nCostumi \tMim Carroll\nTrucco \tTara Lang\n\n[img]http://s19.postimg.org/q8fnlww2b/1_cast.png[/img]\n\n\n    Michael Gross: Dr. Frank Reno\n    Christopher Atkins: Erik Reno\n    Greg Evigan: Ellis Dorn\n    Marie Westbrook: Ruth\n    Phil Burke: Stubbs\n    Wendy Carter: Betty\n    Geoff Meed: CPO Lopes\n    Stephen Blackehart: Lt. Robert Peet\n    Dean Kreyling: Chief 'Bud' Stark\n    Daniel Ponsky: Billy Jones\n    Nick McCallum: Burke\n    Dustin Harnish: Frank Reno\n\n\n[img]http://s19.postimg.org/okgi79i6r/1_trama.png[/img]\n\nIl dottor Frank Reno inventa una macchina del tempo. Insieme a un gruppo di Navy SEALs torna indietro nel tempo fino a 70.000.000 a.C. (nonostante il titolo) per salvare il fratello Erik e altre persone spedite nel Cretaceo durante un analogo esperimento del 1949 e incapaci di ritornare....\n\n[img]http://s19.postimg.org/fzn6g380j/1_story.png[/img]\n\nA scientist leads a team of Navy SEALs back in time to the Cretaceous Period to rescue the first team he sent back during the 1940s. Things go wildly when he accidentally brings a giant dinosaur back into Los Angeles..........\n\n[url=http://extraimago.com/image/O8d][img]http://extraimago.com/images/2015/07/26/vlcsnap-2015-07-26-16h32m51s121.th.png[/img][/url] [url=http://extraimago.com/image/O8h][img]http://extraimago.com/images/2015/07/26/vlcsnap-2015-07-26-16h33m22s168.th.png[/img][/url] [url=http://extraimago.com/image/O8b][img]http://extraimago.com/images/2015/07/26/vlcsnap-2015-07-26-16h33m55s255.th.png[/img][/url]\n\n[IMG]http://img153.imageshack.us/img153/3158/restateinseedblood.gif[/img]\n\n\n[img]http://imgur.com/lvhU6.gif[/img]\n\n\n[img]http://s19.postimg.org/a2jaz9qvn/1_dati.png[/img]\n\n\n[spoiler]\nGeneral\nComplete name                            : 100 Millio Bc (2008).ita.eng.MIRCrew100 Millio Bc (2008).ita.eng.MIRCrew.avi\nFormat                                   : AVI\nFormat/Info                              : Audio Video Interleave\nFile size                                : 1.63 GiB\nDuration                                 : 1h 22mn\nOverall bit rate                         : 2 837 Kbps\nWriting application                      : VirtualDubMod 1.5.10.2 (build 2540/release)\nWriting library                          : VirtualDubMod build 2540/release\n\nVideo\nID                                       : 0\nFormat                                   : MPEG-4 Visual\nFormat profile                           : Advanced Simple@L5\nFormat settings, BVOP                    : 1\nFormat settings, QPel                    : No\nFormat settings, GMC                     : No warppoints\nFormat settings, Matrix                  : Custom\nCodec ID                                 : XVID\nCodec ID/Hint                            : XviD\nDuration                                 : 1h 22mn\nBit rate                                 : 1 928 Kbps\nWidth                                    : 720 pixels\nHeight                                   : 416 pixels\nDisplay aspect ratio                     : 16:9\nFrame rate                               : 25.000 fps\nColor space                              : YUV\nChroma subsampling                       : 4:2:0\nBit depth                                : 8 bits\nScan type                                : Progressive\nCompression mode                         : Lossy\nBits/(Pixel*Frame)                       : 0.257\nStream size                              : 1.11 GiB (68%)\nWriting library                          : XviD 1.2.1 (UTC 2008-12-04)\n\nAudio #1\nID                                       : 1\nFormat                                   : AC-3\nFormat/Info                              : Audio Coding 3\nMode extension                           : CM (complete main)\nCodec ID                                 : 2000\nDuration                                 : 1h 22mn\nBit rate mode                            : Constant\nBit rate                                 : 448 Kbps\nChannel(s)                               : 6 channels\nChannel positions                        : Front: L C R, Side: L R, LFE\nSampling rate                            : 48.0 KHz\nBit depth                                : 16 bits\nCompression mode                         : Lossy\nStream size                              : 263 MiB (16%)\nAlignment                                : Split accross interleaves\nInterleave, duration                     : 40 ms (1.00 video frame)\nInterleave, preload duration             : 500 ms\n\nAudio #2\nID                                       : 2\nFormat                                   : AC-3\nFormat/Info                              : Audio Coding 3\nCodec ID                                 : 2000\nDuration                                 : 1h 21mn\nBit rate mode                            : Constant\nBit rate                                 : 448 Kbps\nChannel(s)                               : 2 channels\nSampling rate                            : 48.0 KHz\nCompression mode                         : Lossy\nStream size                              : 262 MiB (16%)\nAlignment                                : Split accross interleaves\nInterleave, duration                     : 40 ms (1.00 video frame)\nInterleave, preload duration             : 500 ms\n\n\n[/spoiler]\n\n[/color][/b][/center]","torrent":{"xt":"urn:btih:c294384ec2dd5c72b0d3ca54abc9341097014bbe","amp;dn":"100+Millio+Bc+-+La+guerra+dei+dinosauri+%282008%29.DVDrip.XviD+-+Ita","amp;tr":["udp%3A%2F%2Ftracker.openbittorrent.com%3A80","udp%3A%2F%2Fopen.demonii.com%3A1337","udp%3A%2F%2Ftracker.coppersurfer.tk%3A6969","udp%3A%2F%2Fexodus.desync.com%3A6969"],"infoHash":"c294384ec2dd5c72b0d3ca54abc9341097014bbe","infoHashBuffer":{"type":"Buffer","data":[194,148,56,78,194,221,92,114,176,211,202,84,171,201,52,16,151,1,75,190]},"announce":[],"urlList":[]}}